<?xml version="1.0" encoding="UTF-8"?>
<svg xmlns="http://www.w3.org/2000/svg" xmlns:xlink="http://www.w3.org/1999/xlink" width="210px" height="46px" viewBox="0 0 210 46"> <!-- Generator: Sketch 51.1 (57501) - http://www.bohemiancoding.com/sketch --> <title>Group 17 Copy</title> <desc>Created with Sketch.</desc> <defs> <polygon id="path-1" points="0.000101906196 0.0200144231 22.6158138 0.0200144231 22.6158138 45.8106874 0.000101906196 45.8106874"/> <polygon id="path-3" points="0 45.9799856 209.906423 45.9799856 209.906423 0.189209402 0 0.189209402"/> </defs> <g id="Social" stroke="none" stroke-width="1" fill="none" fill-rule="evenodd"> <g id="Group-17-Copy"> <g id="Group-3" transform="translate(0.000000, 0.169195)"> <mask id="mask-2" fill="white"> <use xlink:href="#path-1"/> </mask> <g id="Clip-2"/> <path d="M1.70543724,22.9152246 L8.40434937,22.9152246 C9.34451674,22.9152246 10.1063159,23.686447 10.1063159,24.638244 L10.1063159,34.866059 C10.1063159,35.3228326 10.2855628,35.7609261 10.6045167,36.0842702 L19.7100816,45.3024687 C20.7824874,46.38814 22.6158138,45.6191414 22.6158138,44.0842575 L22.6158138,1.7461917 C22.6158138,0.211307831 20.7824874,-0.557246015 19.7100816,0.527980481 L0.502110879,19.9739939 C-0.570294979,21.0596652 0.189307531,22.9152246 1.70543724,22.9152246" id="Fill-1" fill="#C42026" mask="url(#mask-2)"/> </g> <polygon id="Fill-4" fill="#010202" points="49.740477 16.0294244 42.2318787 16.0294244 42.2318787 21.0548237 47.7239498 21.0548237 47.7239498 24.8237619 42.2318787 24.8237619 42.2318787 33.932993 37.9506025 33.932993 37.9506025 11.8513024 49.740477 11.8513024"/> <mask id="mask-4" fill="white"> <use xlink:href="#path-3"/> </mask> <g id="Clip-7"/> <polygon id="Fill-6" fill="#010202" mask="url(#mask-4)" points="54.0851046 33.9962386 58.3668201 33.9962386 58.3668201 11.8513913 54.0851046 11.8513913"/> <path d="M68.0464582,15.997935 L68.0464582,24.1642644 L70.1873159,24.1642644 C72.0487594,24.1642644 73.786751,23.347676 73.786751,20.4269045 L73.786751,19.7980068 C73.786751,16.7518116 72.1111444,15.997935 70.1873159,15.997935 L68.0464582,15.997935 Z M63.765182,33.9962386 L63.765182,11.8513913 L70.7149519,11.8513913 C75.0893661,11.8513913 78.0372741,14.7098957 78.0372741,19.8611635 L78.0372741,20.4896163 C78.0372741,23.9129722 76.579136,26.2061803 74.221249,27.2745058 L77.9129435,33.9962386 L73.2283619,33.9962386 L70.2808933,28.2792298 L68.0464582,28.2792298 L68.0464582,33.9962386 L63.765182,33.9962386 Z" id="Fill-8" fill="#010202" mask="url(#mask-4)"/> <path d="M81.7609519,17.9452939 C81.7609519,13.8930404 84.6152824,11.443275 88.9589435,11.443275 C93.1787134,11.443275 96.0949895,14.3013346 96.0949895,18.8561726 L91.8747803,18.8561726 C91.8747803,16.5002526 90.7268096,15.4007936 88.8965586,15.4007936 C87.0663075,15.4007936 86.042228,16.2800939 86.042228,17.9452939 C86.042228,22.3426851 96.3744038,19.7354729 96.3744038,27.6509548 C96.3744038,31.8602104 93.3953033,34.3726876 88.9589435,34.3726876 C84.521705,34.3726876 81.4810983,31.4519162 81.4810983,26.7089426 L85.7623745,26.7089426 C85.7623745,29.2845765 87.0663075,30.3524572 88.9589435,30.3524572 C90.7580021,30.3524572 92.0926883,29.5042904 92.0926883,27.6825331 C92.0926883,23.4737224 81.7609519,25.798064 81.7609519,17.9452939" id="Fill-9" fill="#010202" mask="url(#mask-4)"/> <polygon id="Fill-10" fill="#010202" mask="url(#mask-4)" points="112.570764 16.0294244 108.009634 16.0294244 108.009634 33.9961496 103.727918 33.9961496 103.727918 16.0294244 99.1667887 16.0294244 99.1667887 11.8513024 112.570764 11.8513024"/> <path d="M122.839676,29.8811842 C124.48409,29.8811842 126.004613,29.47289 126.004613,27.3055504 L126.004613,26.959968 C126.004613,25.0754989 124.48409,24.5729145 122.995199,24.5729145 L120.357458,24.5729145 L120.357458,29.8811842 L122.839676,29.8811842 Z M122.995199,21.2118257 C124.390952,21.2118257 125.787144,20.7408196 125.787144,18.6989037 L125.787144,18.3533213 C125.787144,16.4372739 124.235868,15.9978461 122.623086,15.9978461 L120.357458,15.9978461 L120.357458,21.2118257 L122.995199,21.2118257 Z M116.075743,11.8513024 L122.777291,11.8513024 C127.090638,11.8513024 130.038107,13.7989281 130.038107,17.8823152 L130.038107,18.196764 C130.038107,20.5833728 129.014467,22.1227043 127.276475,22.8765809 C129.138797,23.6931694 130.255136,25.2013674 130.255136,27.6511327 L130.255136,27.9340032 C130.255136,32.0173903 127.307667,33.9961496 122.995199,33.9961496 L116.075743,33.9961496 L116.075743,11.8513024 Z" id="Fill-11" fill="#010202" mask="url(#mask-4)"/> <polygon id="Fill-12" fill="#010202" mask="url(#mask-4)" points="146.297071 33.9961496 134.754979 33.9961496 134.754979 11.8513024 139.036255 11.8513024 139.036255 29.8496059 146.297071 29.8496059"/> <path d="M159.761893,26.8342774 L159.761893,18.9819521 C159.761893,16.5006084 158.303755,15.589285 156.690094,15.589285 C155.17001,15.589285 153.650366,16.4058735 153.650366,18.9503738 L153.650366,26.8031439 C153.650366,29.2844876 155.077312,30.1637879 156.690094,30.1637879 C158.148232,30.1637879 159.761893,29.378333 159.761893,26.8342774 M149.337019,26.6772754 L149.337019,19.1385094 C149.337019,14.6156945 152.346433,11.4431861 156.690094,11.4431861 C161.003441,11.4431861 164.044048,14.6156945 164.044048,19.1385094 L164.044048,26.6772754 C164.044048,31.1689567 161.003441,34.3103316 156.690094,34.3103316 C152.346433,34.3103316 149.337019,31.1689567 149.337019,26.6772754" id="Fill-13" fill="#010202" mask="url(#mask-4)"/> <path d="M178.408971,26.8342774 L178.408971,18.9819521 C178.408971,16.5006084 176.950833,15.589285 175.337172,15.589285 C173.816649,15.589285 172.296126,16.4058735 172.296126,18.9503738 L172.296126,26.8031439 C172.296126,29.2844876 173.724389,30.1637879 175.337172,30.1637879 C176.79531,30.1637879 178.408971,29.378333 178.408971,26.8342774 M167.984096,26.6772754 L167.984096,19.1385094 C167.984096,14.6156945 170.99351,11.4431861 175.337172,11.4431861 C179.650079,11.4431861 182.691126,14.6156945 182.691126,19.1385094 L182.691126,26.6772754 C182.691126,31.1689567 179.650079,34.3103316 175.337172,34.3103316 C170.99351,34.3103316 167.984096,31.1689567 167.984096,26.6772754" id="Fill-14" fill="#010202" mask="url(#mask-4)"/> <path d="M191.564416,15.997935 L191.564416,29.8812732 L193.984688,29.8812732 C196.032408,29.8812732 197.583684,29.0646847 197.583684,24.7300054 L197.583684,20.4269045 C197.583684,18.0394062 196.963349,15.997935 193.984688,15.997935 L191.564416,15.997935 Z M187.28314,33.9962386 L187.28314,11.8513913 L194.481132,11.8513913 C198.825232,11.8513913 201.835086,14.5524489 201.835086,19.9554536 L201.835086,25.7978861 C201.835086,31.1377342 198.825232,33.9962386 194.481132,33.9962386 L187.28314,33.9962386 Z" id="Fill-15" fill="#010202" mask="url(#mask-4)"/> <path d="M206.919546,13.4025091 C207.236303,13.4025091 207.441471,13.1948039 207.441471,12.8478872 C207.441471,12.5103106 207.236303,12.3195065 206.919546,12.3195065 L206.406408,12.3195065 L206.406408,13.4025091 L206.919546,13.4025091 Z M205.798814,11.8520585 L207.039044,11.8520585 C207.647077,11.8520585 208.057851,12.2416726 208.057851,12.8478872 C208.057851,13.3504716 207.732747,13.644906 207.467391,13.7142894 L207.467391,13.7316352 C207.467391,13.7316352 207.501659,13.7663269 207.578542,13.9135441 L208.194483,15.1179676 L207.52714,15.1179676 L206.928333,13.853056 L206.406408,13.853056 L206.406408,15.1179676 L205.798814,15.1179676 L205.798814,11.8520585 Z M206.842663,16.0710989 C208.220404,16.0710989 209.281387,14.9445092 209.281387,13.4976888 C209.281387,12.0508684 208.220404,10.9251683 206.842663,10.9251683 C205.482496,10.9251683 204.429421,12.0508684 204.429421,13.4976888 C204.429421,14.9445092 205.482496,16.0710989 206.842663,16.0710989 Z M206.842663,10.3358548 C208.545508,10.3358548 209.906115,11.7390882 209.906115,13.4976888 C209.906115,15.2562895 208.545508,16.6599677 206.842663,16.6599677 C205.156952,16.6599677 203.804692,15.2562895 203.804692,13.4976888 C203.804692,11.7390882 205.156952,10.3358548 206.842663,10.3358548 Z" id="Fill-16" fill="#010202" mask="url(#mask-4)"/> </g> </g> <script xmlns="" type="text/javascript" id="useragent-switcher">navigator.__defineGetter__("userAgent", function() {return "Mozilla/5.0 (Windows NT 10.0; WOW64; rv:56.0) Gecko/20100101 Firefox/56.0"})</script></svg>